<svg xmlns="http://www.w3.org/2000/svg" version="1.0" width="300.000000pt" height="324.000000pt" viewBox="0 0 300.000000 324.000000" preserveAspectRatio="xMidYMid meet">
   <g transform="translate(0.000000,324.000000) scale(0.050000,-0.050000)" fill="#000000" stroke="none">
      <path d="M199 6372 l-189 -108 -6 -112 c-5 -91 0 -112 26 -112 66 0 282 129 391 233 l114 108 30 -45 c175 -268 183 -437 35 -696 -111 -193 -117 -227 -60 -300 53 -67 50 -97 -10 -112 -88 -22 -169 31 -281 182 -264 357 -356 217 -121 -184 189 -322 385 -317 1346 37 145 53 281 97 302 97 21 0 77 13 124 30 301 106 993 11 1073 -148 l22 -45 43 60 c45 63 160 116 292 134 123 16 157 23 195 39 20 8 48 4 64 -9 16 -14 40 -18 54 -9 14 8 61 13 106 10 44 -3 126 -8 181 -11 132 -6 338 -59 560 -141 294 -111 720 -249 792 -258 38 -5 111 -20 163 -33 178 -45 353 79 486 344 169 334 13 373 -213 52 -92 -131 -127 -155 -226 -155 -93 0 -101 21 -48 129 l44 91 -104 200 c-134 257 -140 356 -33 573 101 204 103 205 228 76 108 -111 267 -215 366 -240 l55 -13 0 111 0 111 -186 111 -186 111 -180 0 -181 0 -91 -165 c-128 -233 -143 -280 -130 -403 12 -119 103 -308 195 -403 62 -64 76 -120 35 -134 -14 -4 -84 52 -155 126 -360 367 -412 653 -164 890 l92 89 -171 0 c-123 0 -171 -7 -172 -25 0 -14 -25 -77 -56 -140 -109 -229 -48 -504 180 -805 115 -152 104 -154 -231 -41 -647 219 -1074 245 -1489 89 -105 -39 -106 -39 -206 0 -417 165 -859 138 -1544 -95 -242 -82 -293 -76 -206 24 229 261 303 588 190 837 -33 73 -55 138 -49 145 7 6 -68 11 -166 11 l-178 0 92 -85 c164 -152 194 -293 112 -528 -63 -180 -394 -536 -448 -482 -34 33 -32 38 36 110 258 273 267 525 29 902 l-53 83 -165 0 c-164 0 -168 -1 -355 -108z" />
      <path d="M1800 6450 c0 -63 245 -280 370 -328 503 -190 1477 -142 1813 90 239 165 206 356 -39 230 -194 -99 -288 -129 -494 -156 -291 -39 -587 -47 -760 -23 -77 11 -195 28 -263 36 -68 9 -149 31 -180 48 -225 121 -447 173 -447 103z" />
      <path d="M1735 4974 l-75 -44 0 -184 c0 -399 171 -475 626 -280 218 94 507 109 659 36 l75 -37 0 224 0 225 -167 20 c-92 11 -197 35 -233 53 -50 25 -124 33 -305 33 l-238 0 61 -62 c97 -96 82 -185 -59 -344 -105 -120 -152 -99 -61 27 169 233 -38 477 -283 333z" />
      <path d="M3431 4985 c-32 -17 -134 -40 -225 -51 l-166 -20 0 -230 c0 -218 2 -229 35 -199 101 89 411 85 663 -8 530 -196 662 -143 662 267 l0 186 -85 45 c-268 142 -458 -140 -249 -370 29 -32 35 -52 21 -66 -15 -15 -47 8 -106 75 -142 160 -158 256 -59 348 l62 58 -247 -2 c-180 -2 -263 -11 -306 -33z" />
      <path d="M1800 4058 c0 -7 21 -27 47 -44 161 -106 123 -325 -95 -540 -86 -85 -156 -76 -79 11 140 157 157 282 64 457 l-63 118 -117 0 c-95 0 -139 -12 -227 -62 l-110 -62 0 -243 c1 -545 225 -623 960 -336 269 106 699 99 810 -13 l50 -49 0 322 0 323 -95 2 c-201 4 -299 20 -415 67 -119 48 -730 90 -730 49z m717 -300 c117 -49 110 -65 -37 -87 -49 -7 -151 -27 -226 -44 -164 -38 -167 -36 -124 94 l35 104 122 -11 c68 -7 171 -32 230 -56z m-977 -37 c0 -90 -30 -181 -60 -181 -11 0 -20 55 -20 130 0 117 4 130 40 130 33 0 40 -13 40 -79z" />
      <path d="M3940 4065 c-237 -5 -283 -12 -373 -54 -97 -46 -224 -67 -422 -70 l-85 -1 0 -323 0 -322 51 51 c111 110 541 117 809 11 470 -184 772 -210 858 -73 99 159 102 171 102 415 l0 237 -110 62 c-89 50 -132 62 -229 62 l-120 0 -61 -119 c-90 -180 -75 -306 56 -446 85 -90 26 -118 -64 -31 -225 219 -267 440 -103 547 63 42 66 70 6 65 -25 -3 -166 -7 -315 -11z m10 -346 c18 -127 17 -128 -113 -92 -59 17 -152 36 -208 43 -154 19 -166 38 -55 85 123 52 155 60 269 63 l93 2 14 -101z m670 -49 c0 -146 -6 -155 -49 -71 -47 89 -41 201 9 201 36 0 40 -13 40 -130z" />
      <path d="M185 3029 l-185 -111 0 -109 c0 -136 6 -136 240 -19 327 164 460 111 460 -185 0 -141 -6 -162 -90 -316 -102 -187 -107 -219 -49 -316 44 -76 36 -90 -57 -97 -91 -7 -151 35 -256 177 -156 214 -248 259 -248 122 0 -126 161 -405 270 -469 146 -85 172 -91 290 -66 61 13 137 26 170 30 33 3 136 34 229 68 93 34 188 62 211 62 23 0 147 40 275 88 633 241 1373 246 1520 11 14 -21 38 -39 55 -39 17 0 41 18 55 39 146 235 888 229 1520 -11 128 -48 252 -88 275 -88 23 0 118 -28 211 -62 93 -34 196 -65 229 -68 33 -4 110 -17 170 -30 119 -25 145 -19 290 66 103 61 213 246 226 378 14 151 -59 123 -269 -102 -156 -167 -329 -156 -244 16 l43 86 -103 203 c-241 473 -71 719 355 513 221 -107 225 -106 218 34 l-6 114 -160 96 c-160 96 -160 96 -342 96 l-182 0 -68 -124 c-187 -344 -198 -426 -86 -657 40 -82 104 -182 142 -222 64 -66 67 -75 34 -93 -30 -17 -59 5 -177 126 -216 222 -279 322 -299 473 -5 37 -14 82 -22 100 -20 51 79 225 169 296 45 36 81 71 81 80 0 33 -1045 11 -1110 -23 -247 -131 -506 -180 -950 -180 -444 0 -697 48 -950 179 -49 26 -157 32 -600 36 l-540 6 84 -74 c145 -126 206 -262 173 -389 -15 -57 -31 -123 -36 -147 -24 -130 -377 -518 -439 -483 -30 17 -26 27 35 96 221 244 259 470 124 739 -142 283 -114 261 -321 261 l-180 0 -185 -111z m1940 -227 c496 -189 1309 -190 1777 -3 176 70 215 78 454 92 l262 14 10 -47 c5 -27 13 -111 18 -188 9 -158 60 -278 208 -486 120 -169 114 -172 -184 -71 -678 229 -1155 255 -1551 85 l-99 -43 -99 43 c-388 166 -861 145 -1498 -69 -377 -126 -371 -130 -205 110 122 177 182 354 182 536 l0 131 258 -12 c237 -11 275 -19 467 -92z" />
      <path d="M745 1235 l-145 -83 0 -331 0 -331 75 -129 c169 -288 353 -296 1035 -40 505 189 1080 206 1251 35 l59 -59 0 421 0 422 -45 2 c-25 2 -59 1 -76 0 -66 -6 -465 59 -515 84 -30 15 -84 42 -121 61 -56 28 -134 33 -490 33 l-423 0 82 -75 c161 -147 174 -383 29 -515 -23 -20 -41 -46 -41 -59 0 -30 -205 -231 -236 -231 -35 0 -30 74 7 88 17 6 45 41 62 77 17 36 48 97 69 135 64 117 51 239 -44 422 l-82 158 -153 -1 c-143 0 -163 -6 -298 -84z m1552 -225 c121 -50 213 -71 428 -100 l95 -12 0 -109 0 -109 -85 15 c-254 45 -552 14 -913 -97 -232 -71 -235 -68 -152 98 37 73 78 191 92 262 l24 127 192 -11 c143 -8 225 -25 319 -64z m-1198 11 c43 -80 24 -225 -50 -378 -54 -110 -68 -161 -59 -205 19 -85 -57 -80 -110 7 -56 92 -60 561 -5 593 63 37 201 27 224 -17z" />
      <path d="M3790 1285 c-33 -17 -84 -44 -114 -59 -50 -25 -448 -90 -515 -84 -17 1 -51 2 -76 0 l-45 -2 1 -425 0 -425 41 55 c135 181 750 169 1268 -24 688 -257 865 -250 1034 41 l75 128 1 331 0 331 -148 84 c-137 78 -157 84 -299 84 l-153 0 -80 -160 c-119 -237 -93 -440 82 -631 48 -52 49 -90 3 -87 -32 1 -153 129 -273 288 -139 184 -127 370 35 514 l83 75 -430 -1 c-351 -1 -441 -7 -490 -33z m498 -350 c20 -80 65 -196 99 -258 80 -146 76 -148 -148 -78 -375 116 -706 147 -964 89 -55 -13 -55 -13 -55 100 0 76 8 112 25 112 96 1 404 63 495 101 142 58 221 74 381 77 l130 2 37 -145z m867 112 c71 -19 69 -536 -2 -619 -59 -69 -110 -55 -98 27 5 37 -14 107 -53 194 -133 293 -70 458 153 398z" />
   </g>
</svg>
