<svg xmlns="http://www.w3.org/2000/svg" version="1.0" width="139.000000pt" height="300.000000pt" viewBox="0 0 139.000000 300.000000" preserveAspectRatio="xMidYMid meet">
   <g transform="translate(0.000000,300.000000) scale(0.050000,-0.050000)" fill="#000000" stroke="none">
      <path d="M290 5963 c-33 -20 -112 -67 -175 -104 l-115 -67 0 -106 c0 -89 6 -106 36 -106 62 0 239 99 342 192 125 112 125 112 199 -39 91 -185 86 -274 -27 -495 -88 -172 -110 -263 -70 -288 11 -7 20 -30 20 -51 0 -79 -106 -49 -199 56 -253 287 -301 317 -301 190 1 -167 156 -415 306 -491 154 -77 352 -36 1094 226 547 194 1156 196 1332 6 l48 -52 0 151 0 152 -125 41 c-409 133 -785 107 -1375 -95 -210 -72 -224 -61 -121 98 158 244 195 461 111 651 -28 62 -50 125 -50 140 0 22 -40 28 -175 28 l-174 0 74 -61 c90 -74 175 -213 175 -284 0 -227 -364 -745 -469 -668 -35 26 -33 32 41 115 233 260 230 601 -6 863 -46 50 -311 49 -396 -2z" />
      <path d="M1660 5971 c0 -68 218 -266 353 -320 139 -56 459 -110 652 -111 l115 0 0 120 0 120 -85 0 c-47 1 -143 10 -215 21 -71 11 -179 28 -240 38 -109 17 -202 50 -344 123 -90 46 -236 52 -236 9z" />
      <path d="M1621 4611 l-81 -39 0 -175 c0 -307 89 -405 312 -344 65 17 145 38 178 46 33 8 87 28 120 45 148 75 481 88 585 23 l45 -28 0 209 0 208 -125 14 c-69 7 -161 25 -205 40 -85 29 -510 57 -510 34 1 -8 24 -36 52 -63 81 -76 14 -287 -116 -368 -58 -36 -63 1 -10 71 168 220 0 445 -245 327z" />
      <path d="M1671 3764 c-3 -3 25 -36 62 -73 107 -107 85 -255 -64 -426 -141 -160 -189 -149 -79 18 87 131 90 215 16 367 l-54 110 -108 0 c-80 0 -135 -14 -206 -53 l-98 -53 0 -228 c0 -517 142 -575 820 -336 244 86 285 94 447 95 155 1 293 -27 348 -70 20 -16 25 37 25 249 l0 270 -175 25 c-96 14 -220 42 -275 62 -87 32 -635 67 -659 43z m548 -266 c136 -29 130 -67 -14 -96 -63 -12 -135 -28 -160 -35 -38 -10 -45 -4 -45 39 0 119 31 133 219 92z" />
      <path d="M165 2800 l-165 -102 0 -109 c0 -133 4 -134 215 -29 396 196 554 -14 335 -442 -94 -183 -94 -185 -62 -252 92 -194 -86 -155 -256 55 -56 70 -131 144 -167 165 l-65 38 1 -87 c1 -228 251 -527 438 -524 187 2 573 108 971 267 458 183 1126 188 1305 9 l65 -65 0 154 0 154 -135 43 c-400 128 -756 107 -1299 -77 -327 -111 -321 -114 -199 76 113 178 150 276 166 446 15 169 13 168 283 142 152 -14 243 -36 377 -89 172 -69 526 -133 731 -133 l76 0 0 120 c0 130 9 122 -140 131 -192 13 -505 68 -549 97 -27 17 -66 32 -85 32 -20 0 -63 18 -96 40 -56 37 -94 40 -550 40 l-490 0 83 -78 c170 -158 194 -283 98 -512 -58 -139 -336 -452 -387 -435 -38 13 -28 54 27 106 197 185 232 450 95 719 l-96 190 -180 6 -180 5 -165 -101z" />
      <path d="M1260 1216 c0 -7 27 -33 60 -56 201 -143 164 -370 -106 -658 -52 -56 -103 -102 -113 -102 -41 0 -34 60 12 103 156 146 183 354 74 571 l-73 146 -150 0 c-137 0 -161 -6 -277 -74 l-127 -74 0 -311 0 -311 75 -128 c152 -259 230 -264 845 -57 599 202 757 223 1077 148 71 -17 149 -51 175 -75 l48 -45 0 151 0 150 -115 35 c-264 80 -594 63 -962 -50 -180 -55 -191 -53 -151 24 49 96 108 277 108 333 l0 50 175 -12 c116 -8 222 -29 314 -64 122 -46 458 -109 587 -110 44 0 46 6 40 125 l-6 125 -70 4 c-170 9 -448 67 -545 113 -104 49 -895 93 -895 49z m-244 -373 c5 -85 -6 -132 -55 -237 -34 -72 -61 -147 -61 -167 0 -57 -34 -64 -69 -15 -24 35 -31 99 -31 279 0 258 0 257 130 251 l80 -4 6 -107z" />
   </g>
</svg>
