<svg xmlns="http://www.w3.org/2000/svg" version="1.0" width="176.000000pt" height="130.000000pt" viewBox="0 0 76.000000 130.000000" preserveAspectRatio="xMidYMid meet">
   <g transform="translate(0.000000,130.000000) scale(0.100000,-0.100000)" fill="#000000" stroke="none">
      <path transform="rotate(30)" d="M87 1283 c-4 -3 -7 -15 -7 -25 0 -10 -4 -18 -8 -18 -5 0 -17 -35 -28 -77 -10 -43 -23 -81 -28 -84 -5 -4 -11 -60 -14 -126 -4 -94 -2 -122 10 -133 7 -8 19 -29 26 -45 13 -31 43 -50 100 -61 17 -4 32 -10 32 -14 0 -4 39 -14 88 -21 48 -7 89 -16 92 -20 3 -4 59 -15 125 -25 66 -9 122 -20 125 -24 3 -4 33 -13 68 -20 34 -7 62 -16 62 -21 0 -4 22 -15 49 -24 27 -9 52 -23 55 -31 3 -7 11 -14 18 -14 12 0 27 -11 113 -88 34 -30 55 -65 55 -93 0 -11 5 -19 10 -19 6 0 10 -9 10 -20 0 -11 -4 -20 -10 -20 -5 0 -10 -7 -10 -16 0 -10 6 -14 18 -10 9 2 62 17 117 31 131 35 196 66 342 163 140 93 168 109 220 122 35 9 35 9 -12 4 -27 -3 -51 -10 -53 -15 -5 -11 -142 -12 -142 -1 0 5 -25 14 -55 21 -30 7 -61 18 -68 25 -7 7 -29 19 -50 27 -20 7 -37 16 -37 20 0 3 -20 14 -45 25 -25 10 -45 21 -45 25 0 4 -13 12 -30 19 -16 7 -30 16 -30 21 0 5 -15 16 -32 25 -18 9 -39 25 -46 35 -7 11 -18 19 -23 19 -14 0 -69 55 -69 69 0 5 -8 16 -18 23 -10 7 -26 29 -35 49 -9 20 -23 39 -31 42 -8 3 -17 19 -21 36 -4 17 -11 31 -16 31 -4 0 -16 15 -25 33 -9 17 -23 36 -30 40 -8 4 -14 14 -14 22 0 8 -6 18 -13 22 -7 4 -21 27 -31 51 -11 23 -23 42 -28 42 -4 0 -8 7 -8 15 0 12 -17 15 -95 15 -78 0 -95 -3 -95 -15 0 -8 4 -15 9 -15 5 0 15 -31 22 -70 7 -38 16 -70 21 -70 4 0 8 -27 8 -60 0 -42 -5 -66 -17 -80 -56 -66 -82 -88 -118 -100 -22 -7 -42 -16 -45 -21 -3 -4 -34 -13 -70 -20 -36 -7 -67 -17 -70 -21 -3 -4 -11 2 -18 13 -11 17 -9 21 13 29 14 5 37 13 50 16 14 3 25 10 25 14 0 5 10 12 22 16 28 8 88 64 88 80 0 7 5 14 12 16 14 5 24 196 14 253 l-7 35 -183 0 c-100 0 -186 -3 -189 -7z" />
   </g>
</svg>
