  <svg xmlns="http://www.w3.org/2000/svg" version="1.0" width="600.000000pt" height="600.000000pt" viewBox="0 0 600.000000 600.000000" fill="hsl(10.445755483748641, 100%, 43%)" style="background-color: #142850" preserveAspectRatio="xMidYMid meet">
    <g transform="translate(0.000000,600.000000) scale(0.100000,-0.100000)" fill="inherit" stroke="none">
        <path d="M2805 5985 c-6 -9 -37 -19 -76 -24 -37 -5 -76 -14 -87 -20 -12 -6 -29 -11 -40 -11 -20 0 -137 -47 -203 -81 -75 -39 -85 -45 -134 -79 -157 -108 -278 -228 -369 -364 -48 -74 -136 -243 -136 -265 0 -9 -7 -25 -15 -35 -8 -11 -15 -31 -15 -44 0 -13 -5 -32 -10 -42 -6 -11 -18 -57 -27 -102 -14 -70 -18 -176 -23 -688 -5 -596 -5 -604 -25 -610 -36 -9 -112 -70 -144 -116 -43 -58 -71 -145 -71 -213 0 -56 27 -152 49 -174 6 -6 11 -15 11 -20 0 -22 91 -102 150 -130 57 -28 75 -32 150 -32 75 0 93 4 150 32 161 77 248 269 194 425 -10 29 -24 60 -31 69 -7 8 -13 19 -13 23 0 18 -97 107 -136 127 l-44 21 0 566 c0 523 2 575 20 668 11 56 24 112 29 125 5 13 17 44 26 69 99 252 291 461 530 578 35 17 65 29 153 63 64 25 223 49 322 49 99 0 258 -24 322 -49 88 -34 118 -46 153 -63 228 -111 430 -326 520 -553 83 -208 86 -245 83 -895 -3 -557 -3 -564 -23 -570 -36 -9 -112 -70 -144 -116 -43 -58 -71 -145 -71 -213 0 -56 27 -152 49 -174 6 -6 11 -15 11 -20 0 -22 91 -102 150 -130 57 -28 75 -32 150 -32 75 0 93 4 150 32 161 77 248 269 194 425 -10 29 -24 60 -31 69 -7 8 -13 19 -13 23 0 18 -97 107 -136 127 l-44 21 0 576 c0 487 -2 590 -16 662 -18 97 -40 180 -60 228 -8 18 -14 39 -14 46 0 19 -90 192 -136 262 -68 102 -166 209 -249 273 -33 25 -64 49 -70 53 -59 47 -138 96 -205 129 -60 29 -166 69 -182 69 -11 0 -28 5 -40 11 -11 6 -50 15 -87 20 -37 5 -71 16 -77 24 -17 22 -354 22 -369 0z m-935 -2615 c34 -34 40 -46 40 -82 0 -35 -6 -47 -40 -80 -57 -53 -103 -53 -160 0 -34 33 -40 45 -40 80 0 36 6 48 40 82 33 33 47 40 80 40 33 0 47 -7 80 -40z m2400 0 c34 -34 40 -46 40 -82 0 -35 -6 -47 -40 -80 -57 -53 -103 -53 -160 0 -34 33 -40 45 -40 80 0 36 6 48 40 82 33 33 47 40 80 40 33 0 47 -7 80 -40z" />
        <path d="M597 4303 c-4 -3 -7 -857 -7 -1897 0 -1815 1 -1894 19 -1961 55 -207 222 -378 419 -431 79 -21 3844 -21 3924 0 92 24 178 76 258 156 85 85 132 166 161 277 18 70 19 134 17 1965 l-3 1893 -415 0 -415 0 0 -115 0 -115 295 -5 295 -5 3 -1765 c2 -1644 1 -1768 -15 -1815 -9 -27 -23 -57 -30 -66 -7 -8 -13 -20 -13 -25 0 -21 -98 -103 -155 -130 l-60 -29 -1885 0 -1885 0 -60 29 c-57 27 -155 109 -155 130 0 5 -6 17 -13 25 -7 9 -21 39 -30 66 -16 47 -17 171 -15 1815 l3 1765 295 5 295 5 0 115 0 115 -411 3 c-226 1 -413 -1 -417 -5z" />
        <path d="M2154 4297 c-2 -7 -3 -60 -2 -118 l3 -104 835 0 835 0 0 115 0 115 -833 3 c-683 2 -833 0 -838 -11z" />
    </g>
    <text font-family="Arial, Helvetica, sans-serif" font-size="150pt" x="50%" y="75%" dominant-baseline="middle" text-anchor="middle" fill="inherit">23</text>
  </svg>
